<svg width="351" height="273" viewBox="0 0 351 273" fill="none" xmlns="http://www.w3.org/2000/svg">
<g clip-path="url(#clip0)">
<path d="M158.562 235.716C140.761 238.336 135.402 246.109 134.948 249.668C134.948 254.223 139.035 258.209 161.286 263.477C181.926 268.363 206.243 269.314 231.219 269.883C256.195 270.453 288.89 268.317 301.151 266.039C313.412 263.762 336.888 259.058 344.291 250.807C348.378 246.251 347.47 242.122 342.021 237.424C336.571 232.726 326.956 229.546 314.774 229.025C304.784 228.598 298.729 229.452 297.518 229.594C290.253 230.449 271.634 232.869 238.939 233.723C206.243 234.577 180.813 232.442 158.562 235.716Z" fill="#02AD51"/>
<path fill-rule="evenodd" clip-rule="evenodd" d="M148.302 147.765C144.483 143.029 140.601 136.408 139.569 128.897C137.681 115.15 141.362 80.8361 167.104 61.2254C189.506 44.1595 224.731 43.0526 250.178 59.8803C275.624 76.708 288.447 118.163 277.246 132.631C277.138 132.771 277.028 132.91 276.917 133.049C280.985 131.71 284.172 130.497 286.528 129.6C287.072 129.393 287.571 129.203 288.027 129.032C288.102 129.004 288.197 128.967 288.309 128.923C290.043 128.24 296.119 125.851 305.761 127.166C318.281 128.873 328.163 139.3 333.764 154.701C339.364 170.102 340.297 183.636 336.097 198.571C328.489 225.622 304.361 241.041 291.76 248.508C279.159 255.975 245.557 262.976 219.888 261.109C194.22 259.242 169.229 256.125 148.016 240.107C125.148 222.839 120.947 209.772 120.947 194.837C121.414 183.17 126.921 157.688 145.216 149.101C146.238 148.621 147.266 148.176 148.302 147.765Z" fill="#FFE03C"/>
<circle cx="153.417" cy="118.765" r="5.13372" fill="#5B4D40"/>
<circle cx="243.09" cy="120.899" r="5.13372" fill="#5B4D40"/>
<path d="M194.844 143.413C182.854 141.742 176.089 133.132 174.292 132.286C172.496 131.439 169.432 129.714 170.84 128.851C188.014 118.323 213.7 129.398 222.353 131.968C225.792 133.648 220.941 135.008 218.799 135.536C214.517 136.592 207.792 145.218 194.844 143.413Z" fill="#FFA800"/>
<path d="M193.484 138.627C182.753 137.163 176.671 129.818 175.061 129.092C173.451 128.366 170.704 126.888 171.96 126.159C187.284 117.269 210.299 126.778 218.047 128.995C221.13 130.436 216.795 131.575 214.882 132.016C211.055 132.898 205.071 140.208 193.484 138.627Z" fill="#EC8D11"/>
<path d="M167.478 120.173C165.58 120.487 163.275 122.006 162.45 124.448C161.834 126.271 162.486 128.057 163.897 129.716C165.179 131.224 166.5 132.268 170.724 132.141C175.025 132.012 180.441 127.777 194.397 128.906C208.352 130.035 215.325 134.185 219.643 135.163C222.862 135.892 226.621 135.727 228.054 135.375C230.92 134.671 232.932 132.96 233.158 130.169C233.421 126.913 231.283 124.399 228.53 123.708C225.776 123.017 225.664 124.413 220.081 123.961C214.499 123.509 205.446 113.88 197.11 112.738C188.774 111.595 178.253 120.108 174.494 120.272C170.734 120.436 169.377 119.858 167.478 120.173Z" fill="#FFA800"/>
<path d="M67.825 11.581C58.8896 17.5528 49.657 28.5233 47.0017 34.7825C43.8591 42.8935 42.9101 50.6883 49.0807 63.8653C54.8044 76.0882 64.8626 81.9323 75.4745 87.21C86.0864 92.4876 102.365 94.8428 108.644 90.9721C118.67 84.7923 134.859 97.6677 134.859 97.6677C134.859 97.6677 125.72 84.2725 133.105 75.535C138.654 68.9697 145.847 57.6293 146.686 48.3346C147.526 39.0398 145.079 34.5482 140.475 28.7286C126.305 10.8153 119.138 10.2245 107.991 5.90572C96.8443 1.5869 77.1403 5.35541 67.825 11.581Z" fill="white"/>
<path d="M10.466 194.015C4.00001 181.5 5.03399 163.487 8.5 153.5C11.966 143.513 17 132.5 31.5 125C46 117.5 52.0095 117.441 65.2474 117.473C78.4853 117.505 94.9257 124.461 99.2639 131.466C106.19 142.65 125.325 133.914 125.325 133.914C125.325 133.914 109.501 142.727 112.511 155.146C114.773 164.477 116.29 179.4 112.483 189.104C108.676 198.808 107.98 202.584 96.5 210C85.0203 217.416 67.2358 220.177 50.1179 218.588C33 217 16.932 206.531 10.466 194.015Z" fill="white"/>
<g clip-path="url(#clip1)">
<path d="M118.293 61.1738C117.889 59.7042 117.413 58.1042 115.826 57.8795L114.388 57.676C115.975 57.9007 117.446 56.7904 117.672 55.1958L121.147 30.6484C121.201 30.2701 121.18 29.8848 121.086 29.5145C120.991 29.1442 120.824 28.7962 120.595 28.4903C120.366 28.1844 120.079 27.9266 119.75 27.7317C119.422 27.5367 119.058 27.4084 118.679 27.3541L81.2948 22.0627C79.7074 21.8381 78.2361 22.9484 78.0104 24.543L74.536 49.0903C74.3103 50.6849 75.4157 52.1599 77.0031 52.3846L75.5652 52.1811C73.9778 51.9564 72.9639 53.2855 72.2808 54.6613L68.4088 61.2927C68.1829 62.8887 69.2883 64.3637 70.8757 64.5884L116.888 71.1009C118.475 71.3255 119.946 70.2152 120.172 68.6206L118.293 61.1738V61.1738Z" fill="#CCD6DD"/>
<path d="M68.4033 61.4151L68.4003 61.4983L68.5039 62.5279C68.6597 63.0628 68.9662 63.5416 69.3868 63.907C69.8074 64.2724 70.3243 64.5089 70.8757 64.5884L116.888 71.1009C117.63 71.2035 118.384 71.0149 118.991 70.5746C119.598 70.1342 120.011 69.4763 120.144 68.7383L68.4033 61.4151Z" fill="#9AAAB4"/>
<path d="M115.001 53.3437C114.888 54.1417 114.154 54.6963 113.359 54.5838L78.8498 49.6994C78.0561 49.5871 77.5033 48.8503 77.6163 48.0523L80.6816 26.395C80.7945 25.597 81.5301 25.0426 82.3238 25.1549L116.833 30.0393C117.628 30.1518 118.179 30.8898 118.066 31.6864L115.001 53.3437Z" fill="#5DADEC"/>
<path d="M116.324 63.7492L115.674 60.4671C115.423 59.7571 114.931 59.1344 114.136 59.0218L76.9695 53.7614C76.1758 53.6491 75.5838 54.1637 75.0965 55.0158L73.7049 57.7185C73.2687 58.5309 74.1447 59.2533 74.9384 59.3656L85.8346 60.9078C85.8346 60.9078 87.1915 61.0309 87.5444 60.2581C87.9523 59.3654 88.4716 58.0074 88.5756 57.7699C88.7357 57.4053 89.2416 57.0853 89.9145 57.1806L102.249 58.9263C102.968 59.0281 103.27 59.4419 103.299 59.9052C103.318 60.2071 103.516 61.6093 103.567 62.5566C103.61 63.4002 105.203 63.6477 105.203 63.6477L114.684 64.9897C115.477 65.1018 116.53 64.5601 116.324 63.7492V63.7492Z" fill="#AEBBC1"/>
<path d="M100.76 64.5838L89.5719 63.0003C89.0327 62.9239 88.8681 62.3976 89.0133 61.9312C89.1583 61.4662 89.8944 59.4261 89.9635 59.1866C90.0314 58.9454 90.4338 58.7031 90.7933 58.754L100.88 60.1817C101.307 60.2421 101.551 60.5158 101.571 60.9967C101.59 61.4789 101.672 63.4177 101.638 63.853C101.604 64.2896 101.276 64.6569 100.76 64.5838V64.5838Z" fill="#9AAAB4"/>
</g>
<g clip-path="url(#clip2)">
<path d="M77.2509 148.497L68.2159 150.045L67.1837 144.022C66.9099 142.424 66.0128 141.001 64.6896 140.065C63.3664 139.129 61.7256 138.757 60.1282 139.031L48.0816 141.095C46.4841 141.369 45.0608 142.266 44.1248 143.589C43.1888 144.912 42.8167 146.553 43.0905 148.151L44.1227 154.174L35.0878 155.722C33.4903 155.996 32.067 156.893 31.131 158.217C30.195 159.54 29.8229 161.18 30.0967 162.778L35.2579 192.894C35.5317 194.492 36.4288 195.915 37.752 196.851C39.0752 197.787 40.716 198.159 42.3134 197.886L84.4766 190.66C86.074 190.386 87.4973 189.489 88.4333 188.166C89.3693 186.843 89.7414 185.202 89.4676 183.604L84.3064 153.488C84.0327 151.89 83.1355 150.467 81.8123 149.531C80.4892 148.595 78.8484 148.223 77.2509 148.497V148.497ZM46.6183 150.646C46.4814 149.848 46.6674 149.027 47.1354 148.366C47.6034 147.704 48.3151 147.255 49.1138 147.119L61.1604 145.054C61.9591 144.917 62.7795 145.103 63.4411 145.571C64.1027 146.039 64.5513 146.751 64.6882 147.55L65.2043 150.561L47.1344 153.658L46.6183 150.646Z" fill="#9A4E1C"/>
<path d="M86.3709 165.534C86.6446 167.132 86.2726 168.773 85.3366 170.096C84.4006 171.419 82.9773 172.316 81.3798 172.59L39.2167 179.816C37.6192 180.089 35.9784 179.717 34.6553 178.781C33.3321 177.845 32.4349 176.422 32.1612 174.825L30.0967 162.778C29.8229 161.181 30.195 159.54 31.131 158.217C32.067 156.893 33.4903 155.996 35.0878 155.722L77.2509 148.497C78.8483 148.223 80.4891 148.595 81.8123 149.531C83.1355 150.467 84.0326 151.89 84.3064 153.488L86.3709 165.534Z" fill="#662113"/>
<path d="M85.8548 162.523C86.1285 164.12 85.7565 165.761 84.8205 167.084C83.8845 168.407 82.4612 169.305 80.8637 169.578L38.7006 176.804C37.1031 177.078 35.4623 176.706 34.1391 175.77C32.816 174.834 31.9188 173.41 31.645 171.813L30.0967 162.778C29.8229 161.181 30.195 159.54 31.131 158.217C32.067 156.893 33.4903 155.996 35.0878 155.722L77.2509 148.497C78.8483 148.223 80.4891 148.595 81.8123 149.531C83.1355 150.467 84.0326 151.89 84.3064 153.488L85.8548 162.523Z" fill="#9A4E1C"/>
<path d="M64.7732 166.136C64.9101 166.934 64.7241 167.755 64.2561 168.416C63.7881 169.078 63.0764 169.526 62.2777 169.663L56.2544 170.696C55.4557 170.832 54.6353 170.646 53.9737 170.178C53.3121 169.71 52.8635 168.999 52.7266 168.2C52.5897 167.401 52.7758 166.581 53.2438 165.919C53.7118 165.258 54.4234 164.809 55.2222 164.672L61.2455 163.64C62.0442 163.503 62.8646 163.689 63.5262 164.157C64.1878 164.625 64.6363 165.337 64.7732 166.136Z" fill="#CCD6DD"/>
</g>
</g>
<defs>
<clipPath id="clip0">
<rect width="351" height="273" fill="white"/>
</clipPath>
<clipPath id="clip1">
<rect width="52.2794" height="52.2794" fill="white" transform="translate(75.3265 12.4179) rotate(8.05603)"/>
</clipPath>
<clipPath id="clip2">
<rect width="55" height="55" fill="white" transform="translate(27 144.708) rotate(-9.72455)"/>
</clipPath>
</defs>
</svg>
